<?xml version="1.0" encoding="UTF-8"?>
<svg width="200" height="200" version="1.1" viewBox="0 0 200 200" xmlns="http://www.w3.org/2000/svg">
 <g fill="#4a4a4a">
  <path d="m100 40c-33.137 0-60 26.863-60 60s26.863 60 60 60 60-26.863 60-60-26.863-60-60-60zm-20 40c5.5228 0 10 4.4772 10 10s-4.4772 10-10 10-10-4.4772-10-10 4.4772-10 10-10zm40 0c5.5228 0 10 4.4772 10 10s-4.4772 10-10 10-10-4.4772-10-10 4.4772-10 10-10zm-20 30c11.046 0 20 4.4772 20 10s-8.954 10-20 10-20-4.4772-20-10 8.954-10 20-10z"/>
  <path d="m60 20s-10 10-10 20c0 10 10 20 10 20"/>
  <path d="m140 20s10 10 10 20c0 10-10 20-10 20"/>
 </g>
</svg>
