<?xml version="1.0" encoding="UTF-8"?>
<svg width="200" height="200" version="1.1" viewBox="0 0 200 200" xmlns="http://www.w3.org/2000/svg">
    <!-- Cat body -->
    <ellipse cx="100" cy="110" rx="70" ry="60" fill="#f4c6d0"/>
    
    <!-- Cat head -->
    <circle cx="100" cy="90" r="50" fill="#f4c6d0"/>
    
    <!-- Cat ears -->
    <path d="M60 60l-15-25 30 15z" fill="#f4c6d0"/>
    <path d="M140 60l15-25-30 15z" fill="#f4c6d0"/>
    <path d="M60 62l-10-20 20 10z" fill="#ffb5c2"/>
    <path d="M140 62l10-20-20 10z" fill="#ffb5c2"/>
    
    <!-- Cat face -->
    <circle cx="80" cy="85" r="10" fill="#ffffff"/> <!-- Left eye white -->
    <circle cx="120" cy="85" r="10" fill="#ffffff"/> <!-- Right eye white -->
    <circle cx="80" cy="85" r="5" fill="#000000"/> <!-- Left eye -->
    <circle cx="120" cy="85" r="5" fill="#000000"/> <!-- Right eye -->
    
    <!-- Cute blush -->
    <circle cx="65" cy="100" r="10" fill="#ffb5c2" opacity="0.5"/>
    <circle cx="135" cy="100" r="10" fill="#ffb5c2" opacity="0.5"/>
    
    <!-- Nose -->
    <path d="M95 95l10 5-10 5z" fill="#ffb5c2"/>
    
    <!-- Mouth -->
    <path d="M90 105q10 10 20 0" fill="none" stroke="#000000" stroke-width="2" stroke-linecap="round"/>
    
    <!-- Whiskers -->
    <line x1="50" y1="95" x2="85" y2="100" stroke="#000000" stroke-width="1"/>
    <line x1="50" y1="105" x2="85" y2="105" stroke="#000000" stroke-width="1"/>
    <line x1="50" y1="115" x2="85" y2="110" stroke="#000000" stroke-width="1"/>
    
    <line x1="150" y1="95" x2="115" y2="100" stroke="#000000" stroke-width="1"/>
    <line x1="150" y1="105" x2="115" y2="105" stroke="#000000" stroke-width="1"/>
    <line x1="150" y1="115" x2="115" y2="110" stroke="#000000" stroke-width="1"/>
</svg>
